# xmcd
#
# Track frame offsets: 
#        150
#        11265
#        24760
#        36762
#        46695
#        57475
#        69370
#        81662
#        91747
#        104560
#        116510
#        125627
#        138392
#        150705
#
# Disc length: 2130 seconds
#
# Revision: 0
# Processed by: cddbd v1.5.2PL0 Copyright (c) Steve Scherf et al.
# Submitted via: ExactAudioCopy v0.95b4
#
DISCID=af08500e
DTITLE=Trio Irakitan - Para Sempre
DYEAR=1900
DGENRE=MPB
TTITLE0=Tão Somente Uma Vez (Solamente Uma Vez)
TTITLE1=A Barca (La Barca)
TTITLE2=O Relógio (El Relo)
TTITLE3=Aqueles Olhos Verdes (Aquellos Ojos Verdes)
TTITLE4=Perfídia
TTITLE5=Vereda Tropical
TTITLE6=Sabor a Mim (Sabor a Mi)
TTITLE7=Talvez, Talvez, Talvez (Quizas, Quizas, Quizas)
TTITLE8=Dorme (Duerme)
TTITLE9=Samba da Minha Terra
TTITLE10=Agora é Cinza
TTITLE11=O Orvalho Vem Caindo
TTITLE12=Não Pense em Mim (Non Pensare a Me)
TTITLE13=Ébrio de Amor
EXTD=
EXTT0=
EXTT1=
EXTT2=
EXTT3=
EXTT4=
EXTT5=
EXTT6=
EXTT7=
EXTT8=
EXTT9=
EXTT10=
EXTT11=
EXTT12=
EXTT13=
PLAYORDER=
